<?xml version="1.0" encoding="UTF-8"?>
<svg id="Layer_1" data-name="Layer 1" xmlns="http://www.w3.org/2000/svg" viewBox="0 0 7487.61 1240.96">
  <defs>
    <style>
      .cls-1 {
        fill: #003c00;
      }
    </style>
  </defs>
  <path class="cls-1" d="M4463.21,575.18c305.51,0,491.55,59.74,532.51,59.74s73.39-63.15,73.39-134.84-81.93-109.23-131.42-109.23c-83.63,0-119.47,32.43-119.47,69.98s42.67,73.39,92.17,76.8c-51.2-58.03-29.02-104.11,20.48-104.11,39.26,0,69.98,23.89,69.98,68.27,0,35.84-11.95,80.22-44.38,80.22-40.96,0-211.64-46.08-489.84-46.08-32.43,0-204.81,6.83-204.81-66.56,0-18.77,35.84-56.32,35.84-69.98,0-8.53-22.19-10.24-51.2-10.24s-66.56-25.6-66.56-46.08,25.6-35.84,49.5-35.84c29.02,0,66.56,11.95,110.94,23.89,61.44,17.07,175.8,35.84,257.72,35.84,247.48,0,329.41-54.62,385.73-54.62,71.68,0,93.87,151.9,151.9,208.23,49.5,49.5,128.01,75.1,240.66,75.1,98.99,0,122.89-32.43,133.13-78.51,5.12-22.19,27.31-29.02,27.31-69.98,0-88.75-197.99-73.39-266.26-129.71,27.31-17.07,85.34-49.5,85.34-63.15,0-10.24-15.36-15.36-37.55-15.36s-29.02,5.12-76.8,5.12c-5.12-29.02,32.43-49.5,32.43-69.98,0-25.6-23.9-39.26-59.74-39.26s-97.29-20.48-163.85-54.62-240.66-52.91-455.71-52.91c-165.56,0-257.72,10.24-337.94,3.41-51.2-3.41-102.41-23.89-145.08-23.89-66.56,0-167.26,20.48-167.26,54.62,0,18.77,11.95,20.48,11.95,42.67,0,18.77-10.24,30.72-27.31,30.72-27.31,0-39.26,5.12-39.26,23.89,0,75.1,51.2,97.29,51.2,170.68,0,208.23,331.11,245.78,522.27,245.78h0ZM5265.4,424.99c54.62,0,105.82,25.6,105.82,49.5s-29.02,40.96-85.34,40.96-107.53-27.31-107.53-51.2,40.96-39.26,87.05-39.26h0ZM4580.98,320.87c-179.21,0-296.98-42.67-296.98-90.46,0-75.1,196.28-98.99,295.27-98.99s320.87,32.43,320.87,102.41c0,92.17-245.78,87.05-319.17,87.05h0ZM4562.21,64.86c201.4,0,337.94,56.32,390.85,117.77-93.87-51.2-247.48-90.46-366.96-90.46s-228.71,22.19-361.84,88.75c69.98-88.75,250.9-116.06,337.94-116.06ZM5615.28,1124.76c0-58.03,44.38-122.89,114.35-160.44-116.06,10.24-174.09,56.32-203.11,110.94-27.31-47.79-97.29-87.05-182.62-90.46,64.86,39.26,92.17,87.05,92.17,131.42,0,40.96-13.65,69.98-69.98,114.35,59.74,0,133.13-40.96,160.44-104.11,18.77,58.03,104.11,117.77,168.97,114.35-54.62-35.84-80.22-76.8-80.22-116.06h0ZM4905.27,1053.08c-25.6-59.74-81.93-121.18-203.11-129.71,73.39,29.02,138.25,109.23,158.73,167.26,34.14,97.29,122.89,128.01,180.92,131.42-87.05-40.96-105.82-97.29-136.54-168.97h0ZM7122.36,962.62c32.43,27.31,52.91,76.8,52.91,114.35,0,20.48-13.65,52.91-59.74,52.91-73.39,0-97.29-69.98-97.29-145.08,0-37.55-13.65-59.74-30.72-78.51-11.95-13.65-35.84-27.31-46.08-40.96s-23.9-37.55-32.43-46.08c-13.65-13.65-27.31-23.89-47.79-23.89-37.55,0-64.86,39.26-83.63,51.2-42.67,27.31-93.87,37.55-291.86,37.55s-249.19-10.24-291.86-37.55c-18.77-11.95-46.08-51.2-83.63-51.2-20.48,0-34.14,10.24-47.79,23.89-8.53,8.53-22.19,32.43-32.43,46.08s-34.14,27.31-46.08,40.96c-17.07,18.77-30.72,40.96-30.72,78.51,0,75.1-23.9,145.08-97.29,145.08-46.08,0-59.74-32.43-59.74-52.91,0-37.55,20.48-87.05,52.91-114.35-56.32,6.83-163.85,56.32-163.85,145.08,0,75.1,85.34,112.65,165.56,112.65,189.45,0,203.11-174.09,281.62-218.47,90.46-51.2,146.78-42.67,353.3-42.67s262.84-8.53,353.3,42.67c78.51,44.38,92.17,218.47,281.62,218.47,80.22,0,165.56-37.55,165.56-112.65,0-88.75-107.53-138.25-163.85-145.08h0ZM5130.56,650.28c-25.6,0-35.84,20.48-35.84,34.14,0,92.17,92.17,153.61,172.38,153.61,22.19,0,39.26-6.83,39.26-23.89,0-25.6-44.38-39.26-61.44-93.87-13.65-44.38-49.5-69.98-114.35-69.98h0ZM2322.92,510.33c153.61,0,336.23,11.95,411.33,11.95,109.23,0,247.48-20.48,285.03-114.35,15.36-39.26,49.5-92.17,88.75-110.94-18.77,20.48-40.96,58.03-40.96,92.17,0,64.86,73.39,116.06,232.12,116.06,225.29,0,413.04-124.59,413.04-279.91,0-58.03-35.84-93.87-121.18-93.87-174.09,0-302.1,46.08-341.35,78.51,25.6-42.67,134.83-93.87,227-119.47-109.23,0-238.95,52.91-279.91,102.41C3215.56,102.41,3413.55,95.58,3420.37,0c-39.26,44.38-98.99,71.68-203.11,88.75-92.17,15.36-203.11,56.32-266.26,119.47-61.44,61.44-68.27,97.29-90.46,128.01-27.31,39.26-63.15,80.22-204.81,80.22-56.32,0-104.11-27.31-104.11-46.08,0-8.53,10.24-13.65,15.36-17.07s8.53-8.53,8.53-13.65c0-15.36-15.36-17.07-29.02-17.07-34.14,0-56.32,22.19-56.32,46.08,0,68.27,112.65,80.22,165.56,80.22,163.85,0,250.9-17.07,290.15-71.68,39.26-54.62,71.68-109.23,133.13-131.42-52.91,46.08-75.1,102.41-102.41,151.9-23.89,42.67-71.68,85.34-291.86,85.34-133.13,0-254.31-22.19-254.31-93.87s42.67-102.41,42.67-163.85-56.32-49.5-56.32-122.89-66.56-80.22-104.11-80.22c-66.56,0-134.83,11.95-134.83,49.5,0,22.19,15.36,39.26,15.36,58.03,0,10.24-8.53,17.07-25.6,17.07-11.95,0-20.48-6.83-29.02-6.83-10.24,0-17.07,6.83-17.07,17.07,0,37.55,30.72,52.91,39.26,105.82s20.48,247.48,162.14,247.48h0ZM3171.18,315.75c-3.41,5.12-3.41,18.77-3.41,25.6,0,15.36,5.12,71.68,131.42,71.68,112.65,0,175.8-58.03,175.8-110.94,0-49.5-76.8-63.15-122.89-63.15-49.5,0-85.34,11.95-102.41,18.77,40.96-40.96,124.59-68.27,191.16-68.27,51.2,0,143.37,5.12,143.37,83.63,0,61.44-105.82,187.75-285.03,187.75-107.53,0-174.09-29.02-174.09-83.63,0-30.72,29.02-54.62,46.08-61.44ZM5209.07,976.27c35.84,22.19,58.03,58.03,58.03,100.7s-23.9,63.15-78.51,63.15c-71.68,0-100.7-44.38-100.7-148.49,0-34.14-13.65-47.79-39.26-47.79-46.08,0-78.51,35.84-78.51,92.17,0,90.46,98.99,194.57,228.71,194.57s165.56-68.27,165.56-112.65c0-97.29-98.99-141.66-155.32-141.66h0ZM4116.74,954.09c29.02,23.89,37.55,64.86,37.55,98.99,0,39.26-39.26,80.22-90.46,80.22s-97.29-40.96-97.29-80.22,11.95-71.68,40.96-98.99c-63.15,18.77-116.06,78.51-116.06,133.13,0,73.39,68.27,133.13,170.68,133.13s167.26-59.74,167.26-128.01c0-83.63-68.27-119.47-112.65-138.25h0ZM6485.74,489.84c83.63,0,151.9-39.26,172.38-102.41-39.26,39.26-100.7,66.56-172.38,66.56s-133.13-27.31-172.38-66.56c20.48,63.15,88.75,102.41,172.38,102.41ZM5785.96,831.2c42.67,0,93.87-22.19,131.42-69.98,44.38-54.62,54.62-68.27,75.1-92.17,73.39-87.05,174.09-128.01,208.23-167.26,30.72-34.14,25.6-78.51,25.6-121.18,0-92.17,104.11-191.16,157.02-191.16-42.67,20.48-71.68,61.44-83.63,97.29,44.38-61.44,128.01-83.63,186.04-83.63s141.66,22.19,186.04,83.63c-11.95-35.84-40.96-76.8-83.63-97.29,52.91,0,157.02,98.99,157.02,191.16,0,42.67-5.12,87.05,25.6,121.18,34.14,39.26,134.83,80.22,208.23,167.26,20.48,23.89,30.72,37.55,75.1,92.17,37.55,47.79,88.75,69.98,131.42,69.98,18.77,0,40.96-1.71,40.96-22.19,0-13.65-27.31-34.14-52.91-51.2-22.19-15.36-35.84-18.77-63.15-42.67-30.72-27.31-54.62-51.2-68.27-71.68s-44.38-64.86-90.46-92.17c-93.87-56.32-148.49-58.03-148.49-201.4,0-100.7-73.39-145.08-107.53-168.97,8.53,5.12,22.19,8.53,40.96,8.53,29.02,0,52.91-22.19,52.91-51.2,0-44.38-39.26-104.11-114.35-104.11-63.15,0-66.56,30.72-189.45,30.72s-126.3-30.72-189.45-30.72c-75.1,0-114.35,59.74-114.35,104.11,0,29.02,23.9,51.2,52.91,51.2,18.77,0,32.43-3.41,40.96-8.53-34.14,23.89-107.53,68.27-107.53,168.97,0,143.37-54.62,145.08-148.49,201.4-46.08,27.31-76.8,71.68-90.46,92.17s-37.55,44.38-68.27,71.68c-27.31,23.89-40.96,27.31-63.15,42.67-25.6,17.07-52.91,37.55-52.91,51.2,0,20.48,22.19,22.19,40.96,22.19h0ZM6591.56,300.39c0-44.38-40.96-71.68-105.82-71.68s-105.82,27.31-105.82,71.68c0,54.62,49.5,92.17,105.82,92.17s105.82-37.55,105.82-92.17ZM6455.02,307.22c0-17.07,17.07-25.6,30.72-25.6s30.72,8.53,30.72,25.6c0,13.65-15.36,25.6-30.72,25.6s-30.72-11.95-30.72-25.6ZM7246.96,954.09c112.65,47.79,124.59,119.47,124.59,150.2,0,47.79-27.31,90.46-87.05,128.01,102.41,0,203.11-52.91,203.11-139.96,0-66.56-138.25-138.25-240.66-138.25h0ZM6262.15,646.87c0,76.8,117.77,122.89,223.59,122.89s223.59-46.08,223.59-122.89c0-58.03-66.56-71.68-98.99-71.68-40.96,0-66.56,22.19-66.56,42.67,0,13.65,10.24,27.31,25.6,27.31,17.07,0,20.48-10.24,37.55-10.24,22.19,0,34.14,10.24,34.14,27.31,0,37.55-58.03,78.51-155.32,78.51s-155.32-40.96-155.32-78.51c0-17.07,11.95-27.31,34.14-27.31,17.07,0,20.48,10.24,37.55,10.24,15.36,0,25.6-13.65,25.6-27.31,0-20.48-25.6-42.67-66.56-42.67-32.43,0-98.99,13.65-98.99,71.68ZM4570.74,158.73c-105.82,0-208.23,20.48-208.23,58.03,0,52.91,121.18,58.03,220.17,58.03,117.77,0,242.36-6.83,242.36-49.5,0-39.26-88.75-66.56-254.31-66.56ZM2619.9,877.28c-64.86-42.67-122.89-98.99-167.26-98.99-15.36,0-35.84,10.24-35.84,58.03,0,83.63,109.23,165.56,109.23,244.07,0,44.38-22.19,100.7-73.39,136.54,83.63-27.31,128.01-80.22,167.26-157.02,20.48-39.26,46.08-122.89,90.46-122.89,22.19,0,44.38,5.12,76.8,22.19-34.14-39.26-112.65-46.08-167.26-81.93h0ZM4243.04,834.61c-15.36,0-30.72,11.95-30.72,34.14,0,76.8,78.51,141.66,78.51,208.23,0,44.38-18.77,104.11-69.98,139.96,83.63-27.31,126.3-87.05,165.56-163.85,20.48-39.26,49.5-129.71,112.65-141.66-75.1,0-138.25-18.77-162.14-29.02-27.31-11.95-68.27-47.79-93.87-47.79h0ZM2053.25,1063.32c0-107.53,133.13-141.66,133.13-199.69,0-13.65-8.53-20.48-18.77-20.48-32.43,0-64.86,18.77-129.71,18.77-100.7,0-8.53-126.3-8.53-194.57,0-47.84-66.14-76.67-130.94-90.56-24.99-6.77-54.57-10.14-87.53-10.14-52.91,0-69.98,6.83-69.98,23.89,0,15.36,27.31,20.48,64.86,47.79,40.96,30.72,61.44,61.44,61.44,119.47,0,80.22-58.03,204.81-281.62,351.6,215.05-92.17,269.67-179.21,317.46-179.21,37.55,0,34.14,69.98,63.15,128.01,29.02,58.03,73.39,116.06,170.68,158.73-42.67-35.84-83.63-85.34-83.63-153.61h0ZM2348.52,954.09c29.02,23.89,37.55,64.86,37.55,98.99,0,39.26-39.26,80.22-90.46,80.22s-97.29-40.96-97.29-80.22,11.95-71.68,40.96-98.99c-63.15,18.77-116.06,78.51-116.06,133.13,0,73.39,68.27,133.13,170.68,133.13s167.26-59.74,167.26-128.01c0-83.63-68.27-119.47-112.65-138.25h0ZM3154.12,880.7c-92.17-59.74-165.56-146.78-256.02-146.78s-126.3,22.19-177.5,22.19c-76.8,0-131.42-47.79-131.42-92.17,0-40.96,8.53-63.15,49.5-98.99-85.34,25.6-114.35,73.39-114.35,122.89,0,66.56,63.15,126.3,122.89,157.02,71.68,35.84,204.81,63.15,346.47,175.8,107.53,85.34,266.26,208.23,413.04,208.23,87.05,0,170.68-27.31,170.68-81.93,0-114.35-331.11-206.52-423.28-266.26h0ZM3377.7,1135c-66.56,0-155.32-69.98-155.32-141.66,0-15.36,6.83-37.55,34.14-37.55,54.62,0,184.33,76.8,184.33,138.25,0,20.48-13.65,40.96-63.15,40.96ZM3816.35,1090.63c0-37.55,10.24-73.39,68.27-121.18-64.86,8.53-110.94,40.96-139.96,92.17-76.8-76.8-283.32-116.06-377.2-121.18,162.14,52.91,279.91,136.54,279.91,203.11,0,20.48-5.12,54.62-64.86,92.17,59.74,0,148.49-39.26,172.38-107.53,29.02,51.2,64.86,78.51,153.61,100.7-59.74-40.96-92.17-93.87-92.17-138.25h0ZM546.17,672.47c-15.36-29.02-44.38-37.55-64.86-37.55-30.72,0-40.96,27.31-23.89,49.5,126.3,157.02,325.99,225.29,534.22,225.29s407.92-68.27,534.22-225.29c17.07-22.19,6.83-49.5-23.89-49.5-20.48,0-49.5,8.53-64.86,37.55-64.86,126.3-252.6,204.81-445.47,204.81s-380.61-78.51-445.47-204.81h0ZM4906.97,793.65c0-76.8-90.46-160.44-336.23-160.44-206.52,0-261.14,40.96-261.14,95.58,0,78.51,124.59,143.37,257.72,143.37,73.39,0,157.02,15.36,208.23,15.36s131.42-22.19,131.42-93.87h0ZM4606.58,793.65c-143.37,0-196.28-44.38-196.28-78.51,0-46.08,83.63-54.62,143.37-54.62,121.18,0,209.93,22.19,209.93,66.56s-47.79,66.56-157.02,66.56h0ZM1763.1,802.18c0-54.62-54.62-78.51-92.17-78.51-136.54,0-225.29,230.41-679.3,230.41s-542.75-230.41-679.3-230.41c-37.55,0-92.17,23.89-92.17,78.51,0,151.9,305.51,435.23,771.46,435.23s771.46-283.32,771.46-435.23h0ZM991.64,1155.49c-208.23,0-375.49-110.94-375.49-162.14,0-13.65,10.24-22.19,44.38-22.19,44.38,0,182.62,32.43,331.11,32.43s286.74-32.43,331.11-32.43c34.14,0,44.38,8.53,44.38,22.19,0,51.2-167.26,162.14-375.49,162.14ZM1372.25,310.63c0-97.29-220.17-186.04-380.61-186.04s-380.61,88.75-380.61,186.04c0,51.2,78.51,87.05,160.44,87.05s139.96-25.6,220.17-25.6,139.96,25.6,220.17,25.6,160.44-35.84,160.44-87.05h0ZM991.64,295.27c-66.56,0-182.62,0-182.62-56.32,0-49.5,97.29-81.93,182.62-81.93s182.62,32.43,182.62,81.93c0,56.32-116.06,56.32-182.62,56.32ZM716.84,679.3c-17.07-27.31-40.96-39.26-66.56-39.26-23.89,0-35.84,22.19-20.48,46.08,35.84,56.32,165.56,150.2,361.84,150.2s325.99-93.87,361.84-150.2c15.36-23.89,3.41-46.08-20.48-46.08-25.6,0-49.5,11.95-66.56,39.26-40.96,64.86-102.41,124.59-274.79,124.59s-233.83-59.74-274.79-124.59h0ZM116.06,757.81c0-58.03,20.48-88.75,61.44-119.47,37.55-27.31,64.86-32.43,64.86-47.79,0-17.07-17.07-23.89-69.98-23.89C69.98,566.65,0,599.08,0,665.64,0,807.3,93.87,974.57,397.68,1109.4c-223.59-146.78-281.62-271.38-281.62-351.6h0ZM375.49,358.42c46.08,0,87.05-25.6,126.3-69.98-17.07,22.19-22.19,44.38-22.19,66.56,0,121.18,167.26,134.84,317.46,134.84-1.71-17.07,15.36-37.55,69.98-61.44-35.84,8.53-71.68,13.65-109.23,13.65-52.91,0-194.57-25.6-194.57-116.06s160.44-227,428.4-227,428.4,136.54,428.4,227-141.66,116.06-194.57,116.06c-37.55,0-73.39-5.12-109.23-13.65,54.62,23.89,71.68,44.38,69.98,61.44,150.2,0,317.46-13.65,317.46-134.84,0-22.19-5.12-44.38-22.19-66.56,39.26,44.38,80.22,69.98,126.3,69.98,54.62,0,83.63-29.02,83.63-81.93,0-90.46-269.67-269.67-699.78-269.67S291.86,186.04,291.86,276.5c0,52.91,29.02,81.93,83.63,81.93ZM991.64,42.67c259.43,0,407.92,102.41,436.93,151.9-124.59-81.93-291.86-129.71-436.93-129.71s-312.34,47.79-436.93,129.71c29.02-49.5,177.5-151.9,436.93-151.9Z"/>
</svg>