<?xml version="1.0" encoding="UTF-8"?>
<svg id="Layer_1" data-name="Layer 1" xmlns="http://www.w3.org/2000/svg" viewBox="0 0 2000 1240.96">
  <path d="M722.89,678.14c-17.21-27.54-41.31-39.59-67.13-39.59-24.1,0-36.14,22.38-20.65,46.47,36.14,56.8,166.95,151.46,364.89,151.46s328.74-94.66,364.89-151.46c15.49-24.1,3.44-46.47-20.65-46.47-25.82,0-49.91,12.05-67.13,39.59-41.31,65.4-103.27,125.65-277.11,125.65s-235.8-60.24-277.11-125.65ZM378.66,354.56c46.47,0,87.78-25.82,127.37-70.57-17.21,22.38-22.38,44.75-22.38,67.13,0,122.2,168.67,135.97,320.14,135.97-1.72-17.21,15.49-37.87,70.57-61.96-36.14,8.61-72.29,13.77-110.15,13.77-53.36,0-196.21-25.82-196.21-117.04s161.79-228.92,432.01-228.92,432.01,137.69,432.01,228.92-142.86,117.04-196.21,117.04c-37.87,0-74.01-5.16-110.15-13.77,55.08,24.1,72.29,44.75,70.57,61.96,151.46,0,320.14-13.77,320.14-135.97,0-22.38-5.16-44.75-22.38-67.13,39.59,44.75,80.9,70.57,127.37,70.57,55.08,0,84.34-29.26,84.34-82.62C1705.68,180.72,1433.73,0,1000,0S294.32,180.72,294.32,271.94c0,53.36,29.26,82.62,84.34,82.62ZM1000,36.14c261.62,0,411.36,103.27,440.62,153.18-125.65-82.62-294.32-130.81-440.62-130.81s-314.97,48.19-440.62,130.81c29.26-49.91,179-153.18,440.62-153.18ZM117.04,757.31c0-58.52,20.65-89.5,61.96-120.48,37.87-27.54,65.4-32.7,65.4-48.19,0-17.21-17.21-24.1-70.57-24.1-103.27,0-173.84,32.7-173.84,99.83,0,142.86,94.66,311.53,401.03,447.5-225.47-148.02-283.99-273.67-283.99-354.56ZM1383.82,306.37c0-98.11-222.03-187.61-383.82-187.61s-383.82,89.5-383.82,187.61c0,51.64,79.17,87.78,161.79,87.78s141.14-25.82,222.03-25.82,141.14,25.82,222.03,25.82,161.79-36.14,161.79-87.78ZM1000,290.88c-67.13,0-184.17,0-184.17-56.8,0-49.91,98.11-82.62,184.17-82.62s184.17,32.7,184.17,82.62c0,56.8-117.04,56.8-184.17,56.8ZM1826.16,564.54c-53.36,0-70.57,6.88-70.57,24.1,0,15.49,27.54,20.65,65.4,48.19,41.31,30.98,61.96,61.96,61.96,120.48,0,80.9-58.52,206.54-283.99,354.56,306.37-135.97,401.03-304.65,401.03-447.5,0-67.13-70.57-99.83-173.84-99.83ZM1777.97,802.07c0-55.08-55.08-79.17-92.94-79.17-137.69,0-227.19,232.36-685.03,232.36s-547.33-232.36-685.03-232.36c-37.87,0-92.94,24.1-92.94,79.17,0,153.18,308.09,438.9,777.97,438.9s777.97-285.71,777.97-438.9ZM1000,1158.35c-209.98,0-378.66-111.88-378.66-163.51,0-13.77,10.33-22.38,44.75-22.38,44.75,0,184.17,32.7,333.91,32.7s289.16-32.7,333.91-32.7c34.42,0,44.75,8.61,44.75,22.38,0,51.64-168.67,163.51-378.66,163.51ZM550.77,671.26c-15.49-29.26-44.75-37.87-65.4-37.87-30.98,0-41.31,27.54-24.1,49.91,127.37,158.35,328.74,227.19,538.73,227.19s411.36-68.85,538.73-227.19c17.21-22.38,6.88-49.91-24.1-49.91-20.65,0-49.91,8.61-65.4,37.87-65.4,127.37-254.73,206.54-449.23,206.54s-383.82-79.17-449.23-206.54Z"/>
</svg>